<svg width="33" height="33" viewBox="0 0 33 33" fill="none" xmlns="http://www.w3.org/2000/svg">
<path d="M31.2126 0.785156H1.75349C1.04503 0.785156 0.472656 1.35753 0.472656 2.06599V31.5251C0.472656 32.2336 1.04503 32.8059 1.75349 32.8059H31.2126C31.9211 32.8059 32.4934 32.2336 32.4934 31.5251V2.06599C32.4934 1.35753 31.9211 0.785156 31.2126 0.785156ZM27.5142 10.1312H24.9565C22.9512 10.1312 22.563 11.0838 22.563 12.4847V15.5708H27.3501L26.7257 20.4019H22.563V32.8059H17.5718V20.4059H13.397V15.5708H17.5718V12.0084C17.5718 7.87376 20.0974 5.62029 23.7878 5.62029C25.5569 5.62029 27.0739 5.75238 27.5182 5.81242V10.1312H27.5142Z" fill="white"/>
</svg>
