<svg width="33" height="33" viewBox="0 0 33 33" fill="none" xmlns="http://www.w3.org/2000/svg">
<path d="M31.197 0.785156H1.73786C1.0294 0.785156 0.457031 1.35753 0.457031 2.06599V31.5251C0.457031 32.2336 1.0294 32.8059 1.73786 32.8059H31.197C31.9054 32.8059 32.4778 32.2336 32.4778 31.5251V2.06599C32.4778 1.35753 31.9054 0.785156 31.197 0.785156ZM9.95519 28.0709H5.20411V12.7889H9.95519V28.0709ZM7.58165 10.6996C7.03701 10.6996 6.50459 10.5381 6.05173 10.2355C5.59887 9.9329 5.24591 9.50282 5.03749 8.99963C4.82906 8.49644 4.77453 7.94275 4.88078 7.40857C4.98704 6.87438 5.24931 6.38371 5.63443 5.99858C6.01956 5.61346 6.51023 5.35118 7.04442 5.24493C7.5786 5.13867 8.13229 5.19321 8.63548 5.40164C9.13867 5.61006 9.56875 5.96302 9.87134 6.41588C10.1739 6.86874 10.3354 7.40115 10.3354 7.9458C10.3314 9.46679 9.09864 10.6996 7.58165 10.6996ZM27.7427 28.0709H22.9957V20.638C22.9957 18.8649 22.9636 16.5874 20.5261 16.5874C18.0565 16.5874 17.6762 18.5167 17.6762 20.51V28.0709H12.9331V12.7889H17.4881V14.8783H17.5521C18.1845 13.6775 19.7335 12.4087 22.047 12.4087C26.8582 12.4087 27.7427 15.5748 27.7427 19.6894V28.0709Z" fill="white"/>
</svg>
